<svg xmlns="http://www.w3.org/2000/svg" width="299.256" height="352.795" viewBox="-131.953 -358.295 299.256 352.795" fill="currentColor" fill-rule="evenodd">
 <title>moving head — fixture, filled</title>
 <path d="M -54.465 -262.045 A 27.6 27.6 0 0 1 -34.05 -290.23 L 6.875 -301.195 A 27.6 27.6 0 0 1 38.645 -286.995 L 68.84 -227.31 A 14.6 14.6 0 0 1 59.59 -206.615 L -32.415 -181.965 A 14.6 14.6 0 0 1 -50.77 -195.26 L -54.465 -262.045 Z"/>
 <path d="M -110.455 -220 A 15.5 15.5 0 0 1 -125.955 -235.5 L -125.955 -309.895 A 42.4 42.4 0 0 1 -83.555 -352.295 L 83.555 -352.295 A 42.4 42.4 0 0 1 125.955 -309.895 L 125.955 -235.5 A 15.5 15.5 0 0 1 110.455 -220 L 110.455 -220 A 15.5 15.5 0 0 1 94.955 -235.5 L 94.955 -309.895 A 11.4 11.4 0 0 0 83.555 -321.295 L -83.555 -321.295 A 11.4 11.4 0 0 0 -94.955 -309.895 L -94.955 -235.5 A 15.5 15.5 0 0 1 -110.455 -220 L -110.455 -220 Z"/>
</svg>
